<svg width="53" height="50" viewBox="0 0 53 50" fill="none" xmlns="http://www.w3.org/2000/svg">
<path fill-rule="evenodd" clip-rule="evenodd" d="M37.6242 10.5373C34.249 4.26421 27.6225 0 20 0C8.9543 0 0 8.9543 0 20C0 29.454 6.55963 37.376 15.3758 39.4627C18.751 45.7358 25.3775 50 33 50C44.0457 50 53 41.0457 53 30C53 20.546 46.4404 12.624 37.6242 10.5373ZM38 20C38 29.9411 29.9411 38 20 38C18.8822 38 17.7883 37.8981 16.7269 37.7031C15.6195 35.3679 15 32.7563 15 30C15 20.0589 23.0589 12 33 12C34.1178 12 35.2117 12.1019 36.2731 12.2969C37.3805 14.6321 38 17.2437 38 20ZM35.037 10.1025C34.3672 10.0347 33.6876 10 33 10C21.9543 10 13 18.9543 13 30C13 32.4908 13.4553 34.8752 14.2872 37.0746C7.14645 34.6865 2 27.9442 2 20C2 10.0589 10.0589 2 20 2C26.2849 2 31.8175 5.22108 35.037 10.1025ZM38.7128 12.9254C39.5447 15.1248 40 17.5092 40 20C40 31.0457 31.0457 40 20 40C19.3123 40 18.6328 39.9653 17.963 39.8975C21.1825 44.7789 26.7151 48 33 48C42.9411 48 51 39.9411 51 30C51 22.0558 45.8535 15.3135 38.7128 12.9254Z" fill="#F15A5A"/>
</svg>
