<svg width="48" height="48" viewBox="0 0 48 48" fill="none" xmlns="http://www.w3.org/2000/svg">
<path d="M12.621 40.1124C13.6843 42.3675 15.7789 44.2362 19.3872 44.2362C23.3827 44.2362 26.1213 42.1097 26.1213 37.4377V22.0367H21.6105V37.3739C21.6105 39.6291 20.676 40.2089 19.1938 40.2089C17.6475 40.2089 17.0029 39.1459 16.2942 37.8894L12.621 40.1124Z" fill="#F15A5A"/>
<path d="M32.2441 37.5022L28.5714 39.6288C29.8922 42.2388 32.5988 44.2363 36.7874 44.2363C41.0727 44.2363 44.2625 42.0133 44.2625 37.9533C44.2625 34.1836 42.1036 32.5083 38.2693 30.865L37.1417 30.3817C35.2087 29.5439 34.3709 28.996 34.3709 27.6427C34.3709 26.5474 35.2087 25.7097 36.5298 25.7097C37.8185 25.7097 38.656 26.2573 39.4293 27.6427L42.9414 25.3874C41.4594 22.7775 39.3973 21.7786 36.5297 21.7786C32.502 21.7786 29.9244 24.3563 29.9244 27.7395C29.9244 31.4127 32.0832 33.1526 35.3377 34.5378L36.4651 35.0215C38.5273 35.9233 39.7516 36.4711 39.7516 38.0177C39.7516 39.3066 38.5597 40.241 36.6907 40.241C34.4676 40.241 33.211 39.0812 32.2441 37.5022Z" fill="#F15A5A"/>
<path fill-rule="evenodd" clip-rule="evenodd" d="M0 0V48H48V0H0ZM46.125 1.875H1.875V46.125H46.125V1.875Z" fill="#F15A5A"/>
</svg>
