<svg width="26" height="33" viewBox="0 0 26 33" fill="#7B7B7B" xmlns="http://www.w3.org/2000/svg">
<path fill-rule="evenodd" clip-rule="evenodd" d="M20.9231 9.01992C20.9231 13.5066 17.2495 17.1438 12.7179 17.1438C8.18638 17.1438 4.51282 13.5066 4.51282 9.01992C4.51282 4.53322 8.18638 0.896027 12.7179 0.896027C17.2495 0.896027 20.9231 4.53322 20.9231 9.01992ZM19.4231 9.01992C19.4231 12.6864 16.4211 15.6587 12.7179 15.6587C9.01481 15.6587 6.01282 12.6864 6.01282 9.01992C6.01282 5.35344 9.01481 2.38118 12.7179 2.38118C16.4211 2.38118 19.4231 5.35344 19.4231 9.01992Z" />
<path fill-rule="evenodd" clip-rule="evenodd" d="M25.4359 32.173C25.4359 31.8095 25.4203 31.4497 25.3899 31.094C24.8371 24.6447 19.3748 19.581 12.7179 19.581C6.06111 19.581 0.5988 24.6447 0.0460344 31.094C0.0155525 31.4497 0 31.8095 0 32.173V32.5792H25.4359V32.173ZM12.7179 21.0661C6.89009 21.0661 2.1002 25.4662 1.55225 31.094H23.8836C23.3357 25.4662 18.5458 21.0661 12.7179 21.0661Z" />
</svg>
