<svg width="39" height="33" viewBox="0 0 39 33" fill="#7B7B7B" xmlns="http://www.w3.org/2000/svg">
<path d="M30.47 27.782C30.2069 27.6169 29.8587 27.6939 29.6919 27.9544C28.2841 30.1512 25.8771 31.4629 23.2531 31.4629H8.74665C4.54538 31.4629 1.12746 28.0785 1.12746 23.9189V10.5424C1.12746 10.2343 0.874959 9.98428 0.563732 9.98428C0.252505 9.98428 0 10.2343 0 10.5424V23.9189C0 28.6942 3.92381 32.5792 8.74665 32.5792H23.2531C26.2652 32.5792 29.0284 31.0736 30.6438 28.5524C30.8106 28.2922 30.7328 27.9471 30.47 27.782ZM25.5139 12.9497L21.2157 17.2056C20.9955 17.4237 20.9955 17.7772 21.2157 17.9949C21.3255 18.1039 21.47 18.1586 21.6141 18.1586C21.7583 18.1586 21.9027 18.1039 22.0128 17.9949L26.311 13.7393C26.5312 13.5213 26.5312 13.1678 26.311 12.9497C26.0911 12.732 25.7341 12.732 25.5139 12.9497ZM37.6684 3.65044L35.7036 1.70505C34.6161 0.627998 32.8462 0.627998 31.7587 1.70505L29.7189 3.72457C28.0618 1.91988 25.7393 0.896027 23.2531 0.896027H8.74665C6.73454 0.896027 4.76999 1.58935 3.21474 2.8481C1.68151 4.08882 0.608948 5.82228 0.195251 7.72872C0.129776 8.03018 0.323559 8.32698 0.628032 8.39181C0.667963 8.39995 0.707894 8.40431 0.746945 8.40431C1.00708 8.40431 1.2408 8.22524 1.29746 7.96331C1.65802 6.3034 2.59199 4.79378 3.92821 3.71236C5.28264 2.61612 6.9938 2.01233 8.74665 2.01233H23.2531C25.4363 2.01233 27.4749 2.91874 28.9206 4.51499L22.9257 10.4506H7.20549C6.89397 10.4506 6.64146 10.7003 6.64146 11.0087C6.64146 11.3169 6.89397 11.5669 7.20549 11.5669H21.7982L19.0952 14.2428H7.20549C6.89397 14.2428 6.64146 14.4928 6.64146 14.8012C6.64146 15.1094 6.89397 15.3594 7.20549 15.3594H17.9678L14.4709 18.8217C13.4576 19.8249 12.6285 20.9819 12.0069 22.2604L10.4023 25.5607C9.95838 26.4744 10.1392 27.5279 10.8633 28.2448C11.3237 28.7006 11.9218 28.939 12.5336 28.939C12.8836 28.939 13.2383 28.8608 13.5739 28.7009L15.1911 27.9303C15.1914 27.93 15.192 27.93 15.1923 27.9297L16.9075 27.1125C18.1986 26.4971 19.3671 25.6762 20.3807 24.6729L30.8725 14.2849V23.9189C30.8725 24.5302 30.7985 25.1381 30.6526 25.7259C30.5783 26.0253 30.7633 26.3273 31.0657 26.4009C31.1109 26.4119 31.1562 26.4172 31.2005 26.4172C31.4542 26.4172 31.6844 26.2468 31.7475 25.9921C31.9151 25.3174 32 24.6197 32 23.9189V13.1686L33.567 11.6172C33.5673 11.6169 33.5673 11.6169 33.5673 11.6166C33.5676 11.6166 33.5676 11.6166 33.5676 11.6163L37.6684 7.55633C38.756 6.47927 38.756 4.7272 37.6684 3.65044ZM13.085 27.6951C12.4966 27.9756 11.9634 27.7553 11.6604 27.4555C11.3577 27.1555 11.1352 26.6276 11.4185 26.0451L11.8942 25.0663C12.2911 25.3805 12.6763 25.7212 13.0442 26.0855C13.4121 26.4497 13.7562 26.8311 14.0736 27.2241L13.085 27.6951ZM16.4184 26.1067L15.1139 26.7282C14.7272 26.2317 14.3012 25.7512 13.8414 25.2962C13.3816 24.841 12.8962 24.4189 12.3951 24.0363L13.0228 22.7447C13.4562 21.8537 13.9999 21.0278 14.645 20.2795L18.9082 24.5005C18.1525 25.1389 17.3183 25.6776 16.4184 26.1067ZM19.7315 23.7369L15.4163 19.4644L28.0562 6.94934L32.3714 11.2218L19.7315 23.7369ZM33.1689 10.4325L28.8537 6.16008L30.2454 4.78215L34.5609 9.05461L33.1689 10.4325ZM36.8713 6.76678L35.358 8.26506L31.0428 3.9926L32.5558 2.49431C32.8799 2.17338 33.3054 2.0132 33.7311 2.0132C34.1566 2.0132 34.5823 2.17338 34.9062 2.49431L36.871 4.4397C37.519 5.08128 37.519 6.1252 36.8713 6.76678ZM7.20549 7.77436H24.7945C25.1057 7.77436 25.3582 7.52464 25.3582 7.21621C25.3582 6.90777 25.1057 6.65806 24.7945 6.65806H7.20549C6.89397 6.65806 6.64146 6.90777 6.64146 7.21621C6.64146 7.52464 6.89397 7.77436 7.20549 7.77436Z" />
</svg>
