<svg width="33" height="52" viewBox="0 0 33 52" fill="none" xmlns="http://www.w3.org/2000/svg">
<path fill-rule="evenodd" clip-rule="evenodd" d="M15.9848 0.980591L0.868717 27.9735L7.38197 41H0V52H33V41H26.0165L31.6169 27.9325L15.9848 0.980591ZM23.8406 41L29.3831 28.0675L17 6.71731V25.1707C18.1652 25.5826 19 26.6938 19 28C19 29.6569 17.6569 31 16 31C14.3431 31 13 29.6569 13 28C13 26.6938 13.8348 25.5826 15 25.1707V6.83239L3.13128 28.0265L9.61803 41H23.8406ZM2 43H31V50H2V43Z" fill="#F15A5A"/>
</svg>
