<svg width="42" height="48" viewBox="0 0 42 48" fill="none" xmlns="http://www.w3.org/2000/svg">
<path d="M12.296 4.28C10.664 4.28 9.496 4.536 8.792 5.048C8.088 5.528 7.736 6.36 7.736 7.544V19.016C7.736 20.648 7.448 21.832 6.872 22.568C6.296 23.272 5.384 23.832 4.136 24.248C5.416 24.696 6.328 25.256 6.872 25.928C7.448 26.6 7.736 27.752 7.736 29.384V40.856C7.736 42.04 8.088 42.872 8.792 43.352C9.496 43.864 10.664 44.12 12.296 44.12V47.528C9.096 47.528 6.84 46.968 5.528 45.848C4.216 44.76 3.56 42.936 3.56 40.376V29.72C3.56 28.376 3.304 27.432 2.792 26.888C2.312 26.344 1.448 26.072 0.2 26.072V22.424C1.448 22.424 2.312 22.136 2.792 21.56C3.304 20.984 3.56 20.024 3.56 18.68V8.024C3.56 5.464 4.216 3.64 5.528 2.552C6.84 1.432 9.096 0.871999 12.296 0.871999V4.28ZM29.3319 0.871999C32.5319 0.871999 34.7879 1.432 36.0999 2.552C37.4119 3.64 38.0679 5.464 38.0679 8.024V18.68C38.0679 20.024 38.3079 20.984 38.7879 21.56C39.2999 22.136 40.1799 22.424 41.4279 22.424V26.072C40.1799 26.072 39.2999 26.344 38.7879 26.888C38.3079 27.432 38.0679 28.376 38.0679 29.72V40.376C38.0679 42.936 37.4119 44.76 36.0999 45.848C34.7879 46.968 32.5319 47.528 29.3319 47.528V44.12C30.9639 44.12 32.1319 43.864 32.8359 43.352C33.5399 42.872 33.8919 42.04 33.8919 40.856V29.384C33.8919 27.752 34.1639 26.6 34.7079 25.928C35.2839 25.256 36.2119 24.696 37.4919 24.248C36.2439 23.832 35.3319 23.272 34.7559 22.568C34.1799 21.832 33.8919 20.648 33.8919 19.016V7.544C33.8919 6.36 33.5399 5.528 32.8359 5.048C32.1319 4.536 30.9639 4.28 29.3319 4.28V0.871999Z" fill="#F15A5A"/>
</svg>
