<svg width="40" height="40" viewBox="0 0 40 40" fill="none" xmlns="http://www.w3.org/2000/svg">
<path fill-rule="evenodd" clip-rule="evenodd" d="M20 0C8.9543 0 0 8.9543 0 20C0 31.0457 8.9543 40 20 40C31.0457 40 40 31.0457 40 20C40 8.9543 31.0457 0 20 0ZM28.6146 15.558H22.9652V13.9395H28.6146V15.558ZM28.1166 16.9169C27.4368 16.6162 26.6729 16.4652 25.8237 16.4652C24.395 16.4652 23.2348 16.9119 22.338 17.7992C21.4436 18.6889 20.9958 19.9672 20.9958 21.634C20.9958 23.4109 21.49 24.6954 22.4847 25.4836C23.4744 26.2731 24.6196 26.6666 25.9178 26.6666C27.4894 26.6666 28.7124 26.1989 29.5854 25.2646C30.1448 24.6756 30.4609 24.0952 30.5299 23.526H27.9272C27.7767 23.8082 27.6011 24.0284 27.4016 24.188C27.0391 24.4813 26.5663 24.6286 25.988 24.6286C25.4386 24.6286 24.9708 24.5073 24.5819 24.266C23.9397 23.8787 23.6036 23.2018 23.5609 22.2379H30.6641C30.6754 21.4075 30.6478 20.769 30.5788 20.3285C30.4609 19.5749 30.2025 18.9116 29.7999 18.3399C29.3584 17.6915 28.7977 17.2164 28.1166 16.9169ZM15.7039 13.3332C17.312 13.3567 18.4496 13.8183 19.1207 14.7191C19.5233 15.2723 19.7253 15.933 19.7253 16.704C19.7253 17.4972 19.5233 18.1369 19.1157 18.6195C18.8874 18.8893 18.5525 19.1368 18.1097 19.3595C18.782 19.602 19.2887 19.9844 19.6337 20.5078C19.9749 21.03 20.1467 21.6661 20.1467 22.4135C20.1467 23.1844 19.951 23.8761 19.5584 24.4874C19.3101 24.8921 18.999 25.2336 18.6252 25.5108C18.205 25.8288 17.7096 26.0453 17.1363 26.1641C16.5631 26.2817 15.9435 26.3386 15.2737 26.3386H9.33325V13.3332H15.7039Z" fill="#F15A5A"/>
<path fill-rule="evenodd" clip-rule="evenodd" d="M11.9611 15.5918H14.8309C15.4619 15.5918 15.9811 15.6599 16.39 15.7947C16.8617 15.9903 17.0975 16.3899 17.0975 16.9975C17.0975 17.542 16.9181 17.9231 16.5619 18.1384C16.2032 18.3537 15.7378 18.4614 15.1671 18.4614H11.9611V15.5918ZM24.3035 19.0897C24.6635 18.7234 25.1727 18.5402 25.825 18.5402C26.4271 18.5402 26.93 18.7122 27.3389 19.0575C27.7428 19.4052 27.9711 19.9101 28.0175 20.5783H23.6237C23.7165 19.9521 23.9435 19.4559 24.3035 19.0897ZM15.2071 20.6129H11.9609V24.0814H15.1619C15.7339 24.0814 16.1805 24.0047 16.4978 23.8525C17.076 23.5679 17.3645 23.0284 17.3645 22.229C17.3645 21.5509 17.0861 21.0868 16.5254 20.8332C16.2118 20.6921 15.7715 20.6178 15.2071 20.6129Z" fill="#F15A5A"/>
</svg>
