<svg width="32" height="33" viewBox="0 0 32 33" fill="#7B7B7B" xmlns="http://www.w3.org/2000/svg">
<path d="M16.375 6.5891H10.0956C9.75044 6.5891 9.47057 6.8662 9.47057 7.20791C9.47057 7.54962 9.75044 7.82672 10.0956 7.82672H16.375C16.7201 7.82672 17 7.54962 17 7.20791C17 6.8662 16.7201 6.5891 16.375 6.5891Z" />
<path d="M19.2706 6.5891C19.435 6.5891 19.5962 6.65531 19.7131 6.77041C19.8293 6.88551 19.8956 7.04516 19.8956 7.20791C19.8956 7.37066 19.8293 7.53031 19.7131 7.64535C19.5962 7.76051 19.435 7.82672 19.2706 7.82672C19.1062 7.82672 18.9456 7.76051 18.8287 7.64535C18.7124 7.53031 18.6456 7.37066 18.6456 7.20791C18.6456 7.04516 18.7125 6.88557 18.8287 6.77041C18.945 6.65525 19.1062 6.5891 19.2706 6.5891Z" />
<path d="M21.9044 11.0445H10.0956C9.75044 11.0445 9.47057 11.3216 9.47057 11.6634C9.47057 12.0051 9.75044 12.2822 10.0956 12.2822H21.9044C22.2495 12.2822 22.5294 12.0051 22.5294 11.6634C22.5294 11.3216 22.2495 11.0445 21.9044 11.0445Z" />
<path d="M10.0956 15.5H21.9044C22.2496 15.5 22.5294 15.7771 22.5294 16.1188C22.5294 16.4605 22.2496 16.7376 21.9044 16.7376H10.0956C9.75044 16.7376 9.47057 16.4605 9.47057 16.1188C9.47057 15.7771 9.75044 15.5 10.0956 15.5Z" />
<path fill-rule="evenodd" clip-rule="evenodd" d="M27.375 6.98L31.8154 11.3454C31.9336 11.4616 32 11.6197 32 11.7845V27.6596C32 29.0703 31.3963 30.3433 30.4324 31.2412L30.4307 31.2431L30.4289 31.245L30.4272 31.247C30.4243 31.2502 30.4215 31.2535 30.4186 31.2567C30.4155 31.2601 30.4123 31.2634 30.4091 31.2667C30.3893 31.2863 30.3683 31.3036 30.3468 31.32C29.4666 32.1023 28.3043 32.5792 27.0312 32.5792H26.1875C25.8424 32.5792 25.5625 32.3021 25.5625 31.9604C25.5625 31.6187 25.8424 31.3416 26.1875 31.3416H27.0312C27.7629 31.3416 28.4453 31.1304 29.0211 30.7677L19.1441 20.9884C17.4105 19.2719 14.5896 19.2719 12.8558 20.9884L5.40044 28.37H13.7499C14.095 28.37 14.3749 28.6471 14.3749 28.9888C14.3749 29.3305 14.095 29.6076 13.7499 29.6076H4.1505L2.97881 30.7677C3.55469 31.1304 4.23706 31.3416 4.96875 31.3416H20.6208C20.9659 31.3416 21.2458 31.6187 21.2458 31.9604C21.2458 32.3021 20.9659 32.5792 20.6208 32.5792H4.96875C2.229 32.5792 0 30.3723 0 27.6596V11.7845C0 11.6204 0.065875 11.463 0.183062 11.3469L4.625 6.949V3.37127C4.625 2.00642 5.7465 0.896027 7.125 0.896027H24.875C26.2535 0.896027 27.375 2.00642 27.375 3.37127V6.98ZM30.4896 11.7861L27.375 8.72412V14.8698L30.4896 11.7861ZM4.625 14.8698V8.69931L1.50894 11.7845L4.625 14.8698ZM1.25 27.6596C1.25 28.519 1.54969 29.3098 2.04994 29.937L10.0625 22.0038L1.25 13.2785V27.6596ZM11.9719 20.1133C14.193 17.9143 17.807 17.9143 20.0281 20.1133L21.0536 21.1286L26.125 16.1074V3.37127C26.125 2.68885 25.5643 2.13365 24.875 2.13365H7.125C6.43575 2.13365 5.875 2.68885 5.875 3.37127V16.1074L10.9464 21.1286L11.9719 20.1133ZM29.95 29.9371C30.4503 29.3099 30.75 28.519 30.75 27.6596V13.2785L21.9375 22.0038L29.95 29.9371Z" />
<path d="M23.407 31.3416H23.4148C23.7599 31.3416 24.0398 31.6187 24.0398 31.9604C24.0398 32.3021 23.7599 32.5792 23.4148 32.5792H23.407C23.0619 32.5792 22.782 32.3021 22.782 31.9604C22.782 31.6187 23.0619 31.3416 23.407 31.3416Z" />
</svg>
