<svg width="40" height="40" viewBox="0 0 40 40" fill="none" xmlns="http://www.w3.org/2000/svg">
<path fill-rule="evenodd" clip-rule="evenodd" d="M20 0C8.9543 0 0 8.9543 0 20C0 31.0457 8.9543 40 20 40C31.0457 40 40 31.0457 40 20C40 8.9543 31.0457 0 20 0ZM30.4489 17.8406C30.5931 18.5413 30.6666 19.2632 30.6666 19.9851C30.6666 20.7064 30.5931 21.4268 30.4489 22.129C30.3082 22.8145 30.0999 23.4875 29.827 24.1309C29.5603 24.7629 29.2296 25.3719 28.8431 25.9398C28.4624 26.5042 28.0238 27.0336 27.542 27.5163C27.0591 27.9968 26.5279 28.4342 25.9638 28.8166C25.394 29.2004 24.7841 29.5306 24.1517 29.7985C23.5074 30.07 22.8329 30.2781 22.148 30.4185C21.4448 30.5631 20.7218 30.6369 19.9994 30.6369C19.2765 30.6369 18.5535 30.5631 17.8514 30.4185C17.1655 30.2781 16.4909 30.07 15.8472 29.7985C15.2148 29.5306 14.6044 29.2004 14.0346 28.8166C13.4705 28.4343 12.9392 27.9968 12.4574 27.5163C11.9751 27.0336 11.5365 26.5042 11.1552 25.9398C10.7708 25.3719 10.4396 24.7628 10.1719 24.1309C9.89889 23.4875 9.69005 22.8145 9.54889 22.129C9.40619 21.4268 9.33325 20.7064 9.33325 19.9851C9.33325 19.2632 9.40615 18.5413 9.54893 17.8406C9.69009 17.1551 9.89893 16.4811 10.1719 15.8387C10.4396 15.2063 10.7709 14.5968 11.1553 14.0288C11.5365 13.4639 11.9751 12.9355 12.4574 12.4523C12.9392 11.9717 13.4705 11.5354 14.0346 11.1536C14.6044 10.7682 15.2149 10.438 15.8472 10.1695C16.491 9.89748 17.1655 9.68894 17.8515 9.54957C18.5536 9.40604 19.2765 9.3332 19.9995 9.3332C20.7219 9.3332 21.4448 9.40604 22.148 9.54957C22.8329 9.68899 23.5074 9.89752 24.1518 10.1695C24.7841 10.4379 25.394 10.7682 25.9638 11.1536C26.5279 11.5354 27.0592 11.9717 27.542 12.4523C28.0238 12.9355 28.4624 13.4639 28.8431 14.0288C29.2296 14.5968 29.5603 15.2063 29.827 15.8387C30.0999 16.4811 30.3082 17.1551 30.4489 17.8406Z" fill="#F15A5A"/>
<path fill-rule="evenodd" clip-rule="evenodd" d="M26.0146 13.1594L26.0154 13.1582C24.4117 11.7461 22.3059 10.8895 19.9995 10.8895C19.2593 10.8895 18.5411 10.979 17.853 11.1444L17.8678 11.1642C18.0835 11.4527 19.7434 13.6727 21.2584 16.4505C24.6674 15.1743 25.9716 13.2238 26.0146 13.1594ZM27.0337 14.2074C26.9983 14.258 25.5331 16.3485 21.9595 17.8059C22.1709 18.2397 22.3756 18.6812 22.5647 19.1249C22.6319 19.284 22.6975 19.4401 22.7616 19.5961C25.831 19.2104 28.8557 19.8395 29.0949 19.8892L29.1057 19.8915C29.0848 17.7351 28.3124 15.7561 27.0342 14.2067L27.0337 14.2074ZM23.3167 21.0318C24.5115 24.3106 24.997 26.9808 25.0897 27.529C27.1351 26.1507 28.5878 23.9621 28.993 21.427C28.8055 21.3667 26.2569 20.561 23.3167 21.0318ZM21.6099 21.4528C22.8917 24.7794 23.4209 27.5651 23.5558 28.3599C22.4625 28.8243 21.2609 29.0807 19.9994 29.0807C17.8868 29.0807 15.9471 28.3562 14.4006 27.1553C14.4196 27.1141 16.1748 23.3436 21.5495 21.4726C21.5621 21.468 21.5748 21.4639 21.5877 21.4599L21.5878 21.4599L21.6099 21.4528ZM20.25 18.4001C20.5109 18.9108 20.7605 19.4289 20.9891 19.9458C20.8693 19.9801 20.7485 20.0155 20.6297 20.055C15.7139 21.6424 13.221 26.0586 13.2241 26.0633C11.773 24.4525 10.8901 22.3222 10.8901 19.9853C10.8901 19.9179 10.8924 19.8519 10.8946 19.7854L10.8946 19.7854C10.8956 19.7555 10.8966 19.7255 10.8974 19.6951C11.0589 19.7013 15.5597 19.8022 20.25 18.4001ZM19.4953 16.9995C17.9187 14.2024 16.2342 11.9197 16.1128 11.7579C13.5726 12.9557 11.6766 15.2931 11.0854 18.11L11.0942 18.1101C11.4056 18.113 15.1677 18.1477 19.4953 16.9995Z" fill="#F15A5A"/>
</svg>
