<svg width="40" height="40" viewBox="0 0 40 40" fill="none" xmlns="http://www.w3.org/2000/svg">
<path d="M19.9998 0C31.0442 0 40 9.18053 40 20.5062C40 29.5665 34.2693 37.2532 26.3227 39.9648C25.3231 40.1546 24.9562 39.5199 24.9562 38.9783C24.9562 38.4893 24.9747 36.8739 24.9833 35.1604C30.5474 36.4009 31.7215 32.7409 31.7215 32.7409C32.6313 30.3706 33.9421 29.7404 33.9421 29.7404C35.7567 28.4676 33.8053 28.4938 33.8053 28.4938C31.797 28.6381 30.7395 30.607 30.7395 30.607C28.9557 33.742 26.0607 32.8356 24.9194 32.3117C24.7399 30.9866 24.2216 30.0813 23.6496 29.5695C28.0919 29.051 32.7617 27.2927 32.7617 19.4351C32.7617 17.1963 31.9805 15.367 30.7011 13.9309C30.9087 13.4141 31.5933 11.3287 30.5073 8.50409C30.5073 8.50409 28.8278 7.95295 25.0058 10.6061C23.4105 10.1517 21.6995 9.92387 19.9998 9.91606C18.3001 9.92387 16.5879 10.1517 14.9895 10.6061C11.1722 7.95295 9.49501 8.50409 9.49501 8.50409C8.40637 11.3287 9.09129 13.4141 9.29894 13.9309C8.01656 15.367 7.24057 17.1963 7.24057 19.4351C7.24057 27.3113 11.9194 29.0456 16.3729 29.5532C15.6556 30.1896 15.0164 31.4376 15.0164 33.3508C15.0164 36.0942 15.0395 38.3025 15.0395 38.9783C15.0395 39.524 14.6795 40.1634 13.6657 39.962C5.72337 37.2474 0 29.5634 0 20.5062C0 9.18053 8.9545 0 19.9998 0Z" fill="#F15A5A"/>
</svg>
