<svg fill="none" xmlns="http://www.w3.org/2000/svg" viewBox="0 0 585 393"><path opacity=".1" d="M516.553 180.903v73.993H400.592v-73.993h115.961zm0 76.277v63.573c-.661.135-1.317.271-1.972.383-.886.172-1.772.325-2.664.461-.171 0-.348.053-.525.071-.355.059-.715.106-1.069.153-.892.124-1.772.225-2.687.307l-1.276.112-1.033.077c-.561.042-1.116.077-1.672.095-.342 0-.685 0-1.033.041H498.831c-.461 0-.922 0-1.376-.041-.319 0-.638 0-.957-.042a2.057 2.057 0 01-.272 0c-.266 0-.531 0-.791-.035h-.183l-1.772-.142a89.392 89.392 0 01-1.772-.183l-1.216-.147a106.66 106.66 0 01-14.687-3.123c-10.819-3.017-21.378-7.239-32.215-10.326-14.061-4.021-29.51-2.879-42.998 1.956v-53.19h115.961zM400.592 98.527V.022a148.968 148.968 0 0137.677 4.416c29.368 7.374 55.737 23.373 78.296 43.806v50.283h-5.817v2.285h5.817v77.806H400.592v-77.806h86.221v-2.285h-86.221zM251.601 65.253c7.263-.26 14.486-2.556 21.023-6.11 12.491-6.79 22.489-17.28 33.621-26.13C329.4 14.575 358.137 3.446 387.6.689v97.838H222.061l-.407-.437 29.947-32.837zm-15.083-2.698l-15.992 17.546V57.962c5.368.661 10.057 2.255 15.98 4.593h.012zm-15.992 273.937V257.18h34.086c.089-.336.183-.679.29-1.021-.101.342-.189.685-.284 1.021H387.6v57.362c-1.264.939-2.51 1.925-3.745 2.922-1.334 1.087-2.651 2.196-3.974 3.306l-1.329 1.098c-.638.532-1.281 1.051-1.925 1.577a269.831 269.831 0 01-3.892 3.082c-.649.513-1.311 1.015-1.966 1.517a268.836 268.836 0 01-32.977 21.561 276.538 276.538 0 01-13.081 6.818 285.166 285.166 0 01-8.019 3.761 294.81 294.81 0 01-78.131 22.748c-5.988.881-12 1.576-18.035 2.084v-48.524zM387.6 100.812v77.806H220.514v-77.806H387.6zm0 80.091v73.993H220.514v-73.993H387.6zM207.545 57.856v24.749L187.136 60.21a220.159 220.159 0 0120.409-2.355zm0 123.047v73.993H45.03v-73.993h162.515zM45.603 342.372l-.59-85.192h162.532v128.704a291.964 291.964 0 01-31.406-.378h-.183a270.532 270.532 0 01-14.911-1.37h-.112a274.546 274.546 0 01-76.613-20.439l-38.717-21.325zm-31.92-149.26c.615-1.44 1.247-2.869 1.896-4.286 1.181-2.651 2.486-5.272 3.803-7.87h12.68v73.94H.006c.024-20.929 5.327-42.354 13.672-61.837l.006.053zm18.379 64.122v73.23c-9.03-8.649-16.66-18.549-22.152-29.867C3.302 286.965.29 272.212.03 257.18l32.032.054zm0-97.838v19.275H20.57a209.1 209.1 0 0111.486-19.329l.006.054zM142.27 72.373c.845-.324 1.695-.65 2.545-.962a231.04 231.04 0 0127.449-8.265L203.5 97.388l.59.655-.401.437H92.546a237.714 237.714 0 0149.725-26.107zm-52.996 28.439h115.991l2.279 2.09v75.716H45.042v-36.692a231.347 231.347 0 0144.233-41.114z" fill="#F27474"/><g opacity=".1"><path d="M475.728 111.952v66.666h40.825v-66.666h-5.817v-22.57h-23.9v22.57h-11.108zM475.722 180.903h40.825v73.993h-40.825v-73.993zM516.553 257.18h-40.825v61.524a105.414 105.414 0 0014.687 3.117c.407.059.809.107 1.216.154.591.065 1.181.13 1.772.183l1.772.141h.189c.254 0 .519.03.785.036.091.006.181.006.272 0 .325 0 .643.035.962.041.455 0 .91.03 1.376.042h3.792c.271 0 .685 0 1.033-.042.555 0 1.11-.053 1.671-.094l1.028-.077 1.281-.112a74.545 74.545 0 002.688-.307c.348-.047.714-.095 1.068-.154.178 0 .355-.047.52-.071a68.68 68.68 0 002.664-.46c.661-.112 1.316-.248 1.978-.384l.071-63.537zM220.508 104.083h33.667v74.535h-33.667v-74.535zM220.507 180.903v73.993h167.098v-31.91h-89.003v18.821h-44.427v-60.904h-33.668zM132.715 98.527h21.928v-6.842h-9.827V71.41c-.85.313-1.701.638-2.545.962v19.312h-9.556v6.842zM79.855 178.618h107.7-.036 20.026v-74.535h-5.663v55.094h-25.867V126.57h-21.372v-25.758h-21.927v25.758h-21.367v32.607H79.855v19.441zM207.545 180.903v73.993H79.855v-73.993h127.69zM45.207 342.006l-.177-58.565h34.843V257.18h127.672v128.703a291.702 291.702 0 01-31.406-.377h-.183a270.443 270.443 0 01-14.911-1.37h-.113a274.552 274.552 0 01-76.612-20.439M29.806 257.18H.018c.26 15.032 3.278 29.785 9.886 43.417 5.486 11.318 13.122 21.218 22.146 29.867v-47.053h-2.244V257.18zM0 254.896h29.806v-61.837H13.678C5.333 212.542.03 233.967 0 254.896z" fill="#9D6D1F"/><path d="M529.521 98.527h29.782a225.431 225.431 0 00-15.845-21.803 269.487 269.487 0 00-13.937-15.828v37.631zM529.522 100.812v77.806h54.142c0-.224-.035-.46-.059-.685-.047-.59-.094-1.222-.148-1.836-.053-.714-.124-1.434-.189-2.16-.065-.727-.141-1.559-.224-2.332-.083-.774-.159-1.559-.248-2.362-.089-.803-.171-1.553-.266-2.32-.094-.768-.183-1.553-.283-2.32-.083-.644-.166-1.281-.254-1.925-.122-.905-.252-1.809-.39-2.71 0-.136-.041-.271-.059-.401a184.69 184.69 0 00-3.986-19.53c-1.756-6.752-4-13.368-6.715-19.796a148.146 148.146 0 00-10.098-19.453l-31.223.024zM583.811 180.903h-54.29v73.993h50.322c.13.761.26 1.523.401 2.284h-50.723v59.658c.085-.025.168-.056.248-.094a171.96 171.96 0 004.27-1.801l.916-.419a84.216 84.216 0 004.269-2.143c.496-.26.992-.531 1.483-.809a89.055 89.055 0 0021.36-16.631c.183-.177.354-.366.526-.543a97.794 97.794 0 002.539-2.863l.915-1.093a79.95 79.95 0 002.823-3.654c.136-.183.266-.372.402-.549a78.882 78.882 0 009.201-16.631c.076-.177.147-.366.212-.543a70.845 70.845 0 001.99-5.709c.242-.809.485-1.624.685-2.444.077-.242.136-.49.201-.727 3.012-11.849 3.355-24.164 3.355-36.414v-4.281c0-4.955-.048-9.924-.142-14.907-.03-1.287-.053-2.574-.083-3.867a498.65 498.65 0 00-.443-12.581c0-.525-.047-1.051-.082-1.57-.113-1.889-.225-3.773-.355-5.662z" fill="#D87676"/><path d="M219.976 336.516h.531v48.535a291.5 291.5 0 0018.036-2.084 294.635 294.635 0 0078.148-22.777 284.76 284.76 0 0021.101-10.579 269.368 269.368 0 0032.976-21.561 290.954 290.954 0 007.778-6.17c1.772-1.464 3.543-2.952 5.315-4.416a157.894 157.894 0 013.744-2.952V257.18H254.618c.094-.336.183-.679.277-1.021-.1.342-.194.685-.283 1.021h-34.105v79.3l-.531.036z" fill="#9D6D1F"/></g><path d="M310.313 253.178h77.292v1.718h-77.292v-1.718zM310.313 257.18h77.292v6.577h-77.292v-6.577zM310.313 285.324h77.292v10.579h-77.292v-10.579zM310.313 317.47v10.58h60.455a270.543 270.543 0 007.778-6.176c1.772-1.458 3.543-2.952 5.315-4.404h-73.548zM310.313 349.61v10.586h6.378a282.9 282.9 0 0021.101-10.586h-27.479zM220.507 270.116h18.036v23.367h-18.036v-23.367z" fill="#D3C3A4"/><path d="M220.507 124.799h18.036v23.367h-18.036v-23.367zM220.507 173.24h18.036v5.378h-18.036v-5.378zM220.507 180.903h18.036v15.698h-18.036v-15.698zM220.507 221.675h18.036v23.367h-18.036v-23.367zM220.507 336.48l-.531.036h.531v5.425h18.036v-23.39h-18.036v17.929zM220.507 366.979v18.048a290.735 290.735 0 0018.036-2.084v-15.94l-18.036-.024zM160.92 188.076h15.213v15.208H160.92v-15.208zM490.373 117.201h15.212v15.208h-15.212v-15.208zM490.373 152.529h15.213v15.209h-15.213v-15.209zM490.373 187.864h15.213v15.208h-15.213v-15.208zM490.373 223.198h15.213v15.208h-15.213v-15.208zM490.373 258.532h15.213v15.209h-15.213v-15.209zM490.373 293.867h15.213v15.208h-15.213v-15.208zM102.833 188.076h15.213v15.208h-15.213v-15.208zM160.92 225.595h15.213v15.208H160.92v-15.208zM102.833 225.595h15.213v15.208h-15.213v-15.208zM160.92 263.114h15.213v15.208H160.92v-15.208zM102.833 263.114h15.213v15.208h-15.213v-15.208zM102.833 300.632h15.213v15.209h-15.213v-15.209zM102.833 338.151h15.213v15.208h-15.213v-15.208z" fill="#D3A4A4"/><path d="M176.133 385.476v-9.806H160.92v8.413l15.213 1.393zM160.92 338.151h15.213v15.208H160.92v-15.208z" fill="#D3C3A4"/><g opacity=".1"><path d="M581.59 159.578v8.703h-52.069v-8.703h52.069zm-5.185 8.16h4.27v-7.569h-4.27v7.569zm-5.185 0h4.27v-7.569h-4.27v7.569zm-5.173 0h4.27v-7.569h-4.27v7.569zm-5.185 0h4.27v-7.569h-4.27v7.569zm-5.179 0h4.269v-7.569h-4.269v7.569zm-5.185 0h4.269v-7.569h-4.269v7.569zm-5.185 0h4.269v-7.569h-4.269v7.569zm-5.18 0h4.27v-7.569h-4.27v7.569zm-5.179 0h4.27v-7.569h-4.27v7.569zm-5.179 0h4.282v-7.569h-4.27l-.012 7.569zM581.59 184.924v8.702h-52.069v-8.702h52.069zm-5.185 8.153h4.27v-7.604h-4.27v7.604zm-5.185 0h4.27v-7.604h-4.27v7.604zm-5.173 0h4.27v-7.604h-4.27v7.604zm-5.185 0h4.27v-7.604h-4.27v7.604zm-5.179 0h4.269v-7.604h-4.269v7.604zm-5.185 0h4.269v-7.604h-4.269v7.604zm-5.185 0h4.269v-7.604h-4.269v7.604zm-5.18 0h4.27v-7.604h-4.27v7.604zm-5.179 0h4.27v-7.604h-4.27v7.604zm-5.179 0h4.282v-7.604h-4.27l-.012 7.604zM581.59 210.257v8.696h-52.069v-8.696h52.069zm-5.185 8.147h4.27V210.8h-4.27v7.604zm-5.185 0h4.27V210.8h-4.27v7.604zm-5.173 0h4.27V210.8h-4.27v7.604zm-5.185 0h4.27V210.8h-4.27v7.604zm-5.179 0h4.269V210.8h-4.269v7.604zm-5.185 0h4.269V210.8h-4.269v7.604zm-5.185 0h4.269V210.8h-4.269v7.604zm-5.18 0h4.27V210.8h-4.27v7.604zm-5.179 0h4.27V210.8h-4.27v7.604zm-5.179 0h4.282V210.8h-4.27l-.012 7.604zM581.59 235.584v8.697h-52.069v-8.697h52.069zm-5.185 8.153h4.27v-7.61h-4.27v7.61zm-5.185 0h4.27v-7.61h-4.27v7.61zm-5.173 0h4.27v-7.61h-4.27v7.61zm-5.185 0h4.27v-7.61h-4.27v7.61zm-5.179 0h4.269v-7.61h-4.269v7.61zm-5.185 0h4.269v-7.61h-4.269v7.61zm-5.185 0h4.269v-7.61h-4.269v7.61zm-5.18 0h4.27v-7.61h-4.27v7.61zm-5.179 0h4.27v-7.61h-4.27v7.61zm-5.179 0h4.282v-7.61h-4.27l-.012 7.61zM581.366 260.912c-.206.82-.443 1.635-.691 2.444v-1.895h-4.269v7.604h2.279c-.065.177-.136.366-.207.543h-48.957v-8.696h51.845zm-10.146 8.153h4.27v-7.604h-4.27v7.604zm-5.173 0h4.27v-7.604h-4.27v7.604zm-5.185 0h4.27v-7.604h-4.27v7.604zm-5.179 0h4.27v-7.604h-4.27v7.604zm-5.185 0h4.27v-7.604h-4.27v7.604zm-5.185 0h4.27v-7.604h-4.27v7.604zm-5.179 0h4.269v-7.604h-4.269v7.604zm-5.18 0h4.27v-7.604h-4.27v7.604zm-5.179 0h4.282v-7.604h-4.27l-.012 7.604zM569.277 286.245c-.135.171-.265.36-.401.543h-2.829v3.654l-.915 1.093v-4.723h-4.27v7.61h1.73c-.171.177-.336.366-.525.543h-32.546v-8.72h39.756zm-13.582 8.153h4.269v-7.61h-4.269v7.61zm-5.186 0h4.27v-7.61h-4.27v7.61zm-5.185 0h4.27v-7.61h-4.27v7.61zm-5.179 0h4.27v-7.61h-4.27v7.61zm-5.179 0h4.27v-7.61h-4.27v7.61zm-5.179 0h4.27v-7.61h-4.27v7.61z" fill="#C52828"/><path d="M540.712 311.572c-.49.278-.986.549-1.488.809v-.266h-4.27v2.409l-.909.419v-2.828h-4.27v4.629a1.758 1.758 0 01-.254.094v-5.266h11.191z" fill="#C58628"/></g><path opacity=".1" d="M220.513 336.48h-.531.531zm34.388-80.291c-.1.342-.189.684-.283 1.021.106-.366.177-.709.283-1.051v.03zM510.736 98.527v2.285h-23.924v-2.285h23.924zM220.513 336.451h-.531.531zm34.388-80.292c-.1.342-.189.685-.283 1.021.106-.336.177-.679.283-1.021zm-34.388 80.321h-.531.531zm34.388-80.291c-.1.342-.189.684-.283 1.021.106-.366.177-.709.283-1.051v.03z" fill="#F2C374"/><ellipse cx="464.873" cy="46.678" rx="10.87" ry="10.867" fill="#E18E8E"/><path d="M243.946 357.035c-10.743-10.995-20.462-38.461-23.979-50.82l23.979 1.917v48.903z" fill="#EDC1AC"/><path d="M368.317 357.035c10.742-10.995 20.462-38.461 23.979-50.82l-23.979 1.917v48.903z" fill="#F9CDB7"/><path d="M244.194 295.347l-30.045-3.196 7.032-59.45c7.671-17.899 37.929-34.2 52.419-40.593 11.762 25.57 26.848 28.021 32.601 26.529v97.166h-46.985c2.557-49.094-5.966-58.811-10.547-57.532l-4.475 37.076zM368.209 295.347l30.044-3.196-7.031-59.45c-7.671-17.899-37.929-34.2-52.419-40.593-11.762 25.57-26.849 28.021-32.602 26.529v97.166h46.985c-2.557-49.094 5.967-58.811 10.548-57.532l4.475 37.076z" fill="#E36161"/><path fill="#CC5454" d="M207.75 285.119l42.417 3.819-1.91 21.229-42.418-3.819zM358.086 288.934l42.418-3.814 1.91 21.229-42.418 3.814z"/><path d="M340.856 142.654c0 6.403-.446 12.058 1.84 12.058 2.285 0 6.438-5.655 6.438-12.058s-1.853-11.594-4.139-11.594c-2.286 0-4.139 5.191-4.139 11.594z" fill="#F9CDB7"/><path d="M271.726 142.654c0 6.403.447 12.058-1.839 12.058s-6.438-5.655-6.438-12.058 1.853-11.594 4.139-11.594c2.286 0 4.138 5.191 4.138 11.594z" fill="#EDC1AC"/><path d="M283.911 191.1c-3.517 0-7.434.369-10.312 1.008 0 17.123 14.538 31.275 32.373 31.275 17.834 0 32.831-14.152 32.831-31.275-2.877-.959-8.213-1.008-11.73-1.008v-9.269l-21.101.32-22.061-.32v9.269z" fill="#F9CDB7"/><path d="M298.826 182.047l-14.915-.216v9.269c-3.517 0-7.434.369-10.312 1.008 0 16.97 14.281 31.02 31.895 31.271-1.138-1.964-2.295-4.733-3.359-8.577-1.31-4.734-2.558-7.671-3.473-10.793-.916-3.121-2.873-8.044-.683-12.86 1.885-4.146 1.57-7.274.847-9.102z" fill="#EDC1AC"/><path d="M273.36 94.622l32.292-7.031 29.095 2.876 8.632 13.105v26.209l-.959 15.981-3.197 15.662-3.197 6.712-32.932 21.735-28.135-23.013-3.517-10.548-1.279-6.073-.639-6.712-1.919-12.146 5.755-36.757z" fill="#F9CDB7"/><path d="M328.277 100.491c.509 1.017.529 2.081.039 2.369-.489.287-1.298-.301-1.808-1.322-.509-1.021-.529-2.08-.039-2.368.489-.288 1.299.3 1.808 1.321zM332.263 108.864c.891 1.386 1.153 2.719.583 2.975-.569.257-1.758-.662-2.649-2.052-.89-1.391-1.157-2.719-.583-2.976.574-.256 1.754.663 2.649 2.053zM339.146 128.449a45.23 45.23 0 01.396 5.54c0 .851 0 1.663-.06 2.419-.059.755-.102 1.46-.178 2.101-.3 2.561-.791 4.092-1.044 4.057-.593-.076-.055-6.305-1.115-13.852-.993-7.543-3.184-13.401-2.63-13.63.241-.103 1.115 1.243 2.092 3.629.245.598.498 1.255.736 1.979.237.724.47 1.496.704 2.315.477 1.79.845 3.607 1.099 5.442z" fill="#F8DFD2"/><path d="M275.917 136.813c-1.598 16.301 1.599 26.529 3.198 28.766 1.253 1.755 5.388 3.276 7.353 3.836l.959 2.557-2.238.639-8.632-3.835-5.116-11.507-.959-7.351-1.279-9.27-.639-5.433-3.197-13.105 5.755-23.972 11.829-6.712 17.905 3.516c-3.837 2.024-12.597 6.968-16.946 10.548-5.435 4.474-6.394 15.022-7.993 31.323z" fill="#EDC1AC"/><path d="M296.343 166.73c-.757 0-1.367-1.193-1.578-1.79l-1.263 1.193.632.597c3.535 1.671 10.943 2.486 14.205 2.685 6.061-.239 9.26-2.287 10.102-3.282l-1.263-1.193c-.253.477-1.158 1.193-1.578 1.492l-.947-.597-.947.597h-1.895l-1.262.895h-3.788l-.316-.597h-.631l-.316.895h-3.157l-.631-.895h-.631l-.316.597h-.947l-.316-.299-.947-.596h-.631c-.211.099-.821.298-1.579.298z" fill="#2A2111"/><path d="M297.02 174.848c-.768-1.789-4.903-3.196-6.715-3.515l-1.918-.32c-.639 2.024-1.918 6.329-1.918 7.351 0 1.279 7.353 5.434 9.591 6.393 2.238.959 8.313 2.237 8.953.959.639-1.279-1.919-4.795-2.558-5.434l-5.435-5.434z" fill="#EDC1AC"/><path d="M281.11 76.172a13.062 13.062 0 00-2.313-2.076c-.667-.454-1.15-.65-1.257-.538-.217.243 1.118 1.587 2.647 3.326l.655.739a4.608 4.608 0 00-1.601-.193c-.487.041-.77.175-.777.324-.008.15.243.304.655.454.412.15.943.329 1.536.53.592.202 1.123.4 1.535.524l.188.052c.419.426.716.662.843.594.127-.068.017-.553-.344-1.247a12.793 12.793 0 00-1.767-2.489z" fill="#5B3D20"/><path fill-rule="evenodd" clip-rule="evenodd" d="M306.291 69.692c-19.612.322-33.859 14.187-37.899 21.095-8.952 12.785-3.73 37.29 0 47.944.512 10.228 4.05 23.439 5.755 28.766 10.909 21.304 25.765 28.459 31.825 29.406 5.968-.853 20.973-7.927 31.972-29.406 1.705-5.327 5.243-18.538 5.755-28.766 3.73-10.654 8.952-35.159 0-47.944-4.05-6.925-17.713-20.84-37.408-21.096zm-3.689 85.979l2.558 1.278v3.836c-1.492 1.065-5.244 3.196-8.313 3.196.016 0-.052.045-.187.133-1.005.658-5.719 3.744-6.847 8.817 2.025 2.024 6.522 6.328 8.313 7.351 1.79 1.023 6.034 3.409 7.846 4.475 1.811-1.066 6.202-3.452 7.993-4.475 1.79-1.023 6.288-5.327 8.312-7.351-1.127-5.073-5.841-8.159-6.847-8.817-.134-.088-.203-.133-.186-.133-3.07 0-6.821-2.131-8.313-3.196v-3.836l2.558-1.278c3.069 3.835 10.657 5.86 14.067 6.392 2.047.256 2.771 6.286 2.878 9.27 1.023-1.279 7.034-4.156 9.911-5.434l1.599-3.516c2.558-4.091 3.623-15.342 3.836-20.456l.64-18.538c-2.046-3.836-2.984-13.318-3.197-17.58.255-9.716-8.633-11.506-13.109-11.187-6.906-.255-20.142 1.918-20.142 1.918s-13.184-2.17-19.995-1.918c-4.477-.32-13.365 1.47-13.109 11.187-.213 4.262-1.151 13.744-3.197 17.58l.639 18.538c.213 5.114 1.279 16.365 3.837 20.456l1.598 3.516c2.878 1.278 8.889 4.155 9.912 5.434.106-2.984.831-9.014 2.877-9.27 3.411-.532 10.999-2.557 14.068-6.392z" fill="#5B3D20"/><path d="M328.471 181.84c-11.629 2.597-15.465 8.35-22.499 8.67-7.034.32-17.478-4.794-22.381-8.949l.113.381c8.807 10.303 17.862 14.273 22.268 14.961 4.366-.624 13.568-4.577 22.499-15.063zM321.958 94.622c-6.127.561-15.986 1.918-15.986 1.918s-13.184-2.17-19.996-1.918a15.356 15.356 0 00-2.663.055l-.042-.055c5.116-4.155 13.53-4.998 15.317-4.2 2.234.999 7.658 2.496 8.935 2.496.638 0 2.712-.624 4.786-1.248 2.074-.624 8.051.715 8.689.715 0 0 .96.959.96 2.237z" fill="#321"/><path d="M273.951 91.9a3.47 3.47 0 011.035-1.478c.382-.29.742-.352.974-.177.231.174.306.547.269.995a6.189 6.189 0 01-1.111 2.886c-.269.341-.568.545-.85.486-.282-.058-.487-.38-.562-.872a3.74 3.74 0 01.245-1.84zM279.283 85.907c.845-.407 1.748-.269 2.001.301.254.57-.212 1.377-1.057 1.787-.845.41-1.749.268-2.002-.302-.254-.57.213-1.377 1.058-1.786zM283.234 82.034c.635-1.32 1.512-2.287 2.117-2.089.605.199.678 1.592-.021 3.05-.699 1.458-1.842 2.298-2.384 1.967-.541-.332-.342-1.606.288-2.928z" fill="#76502D"/><path d="M292.224 128.503a3.196 3.196 0 01-6.394 0c0-1.766 1.431-2.557 3.197-2.557s3.197.791 3.197 2.557z" fill="#2A2111"/><path d="M288.942 128.503c0 .706.859 1.278 1.918 1.278v-2.557c-1.059 0-1.918.573-1.918 1.279z" fill="#EEE"/><path d="M323.557 128.503a3.197 3.197 0 01-6.395 0c0-1.766 1.432-2.557 3.197-2.557 1.766 0 3.198.791 3.198 2.557z" fill="#2A2111"/><path d="M320.265 128.503c0 .706.859 1.278 1.918 1.278v-2.557c-1.059 0-1.918.573-1.918 1.279z" fill="#EEE"/><path d="M290.945 123.069c-7.674-.511-10.551 2.344-10.871 3.836v-1.599c0-.767.427-1.385.64-1.598 1.79-2.557 5.435-3.622 7.034-3.835 7.417-.512 11.616 2.557 12.788 4.155l-9.591-.959zM320.039 123.069c7.673-.511 10.551 2.344 10.871 3.836v-1.599c0-.767-.427-1.385-.64-1.598-1.79-2.557-5.435-3.622-7.034-3.835-7.417-.512-11.616 2.557-12.788 4.155l9.591-.959z" fill="#7D552E"/><path d="M280.714 127.651c3.09-2.451 10.998-5.689 17.904.959M282.632 128.955c2.539-2.383 9.035-5.534 14.707.933M329.951 127.651c-3.091-2.451-10.998-5.689-17.904.959M328.033 128.955c-2.539-2.383-9.034-5.534-14.707.933" stroke="#7D552E"/><path d="M298.618 150.877c.746 0 2.43.191 3.198.958M311.727 150.877c-.746 0-2.43.191-3.198.958" stroke="#000"/><path fill="#3F3F3F" d="M235.953 299.822H376.63v86.299H235.953z"/><ellipse cx="306.291" cy="343.291" rx="14.068" ry="14.063" fill="#E36161"/><path fill="#3F3F3F" d="M106.786 386.121h399.65v6.393h-399.65z"/><path d="M152.826 331.785h35.169l-5.588 54.336h-24.98l-4.601-54.336zM153.785 326.671c-2.557.255-2.344 1.811-1.918 2.557l37.087.319c.768-1.278-.532-2.024-1.278-2.237l-1.919-5.114c-10.998-4.091-25.258-1.705-31.013 0l-.959 4.475z" fill="#E36161"/><path d="M187.996 331.785h-35.17l-.959-2.557c13.812-1.279 30.48-.32 37.088.319l-.959 2.238zM170.411 303.658c-1.279 1.79-.746 8.416-.32 11.506-1.023-.511-2.344-3.196-2.877-4.475-1.279-4.347.107-10.121.959-12.465 2.814-5.625 1.599-12.785.64-15.662 1.023.512 2.77 2.77 3.516 3.836 2.239 8.31-.319 15.022-1.918 17.26zM177.761 302.793c-.879 1.228-.513 5.776-.22 7.896-.703-.351-1.612-2.193-1.978-3.07-.879-2.984.073-6.947.659-8.555 1.934-3.861 1.099-8.774.44-10.748.703.351 1.904 1.901 2.417 2.632 1.538 5.703-.22 10.309-1.318 11.845zM162.414 302.793c-.879 1.228-.513 5.776-.22 7.896-.703-.351-1.611-2.193-1.977-3.07-.879-2.984.073-6.947.659-8.555 1.934-3.861 1.099-8.774.439-10.748.704.351 1.905 1.901 2.418 2.632 1.538 5.703-.22 10.309-1.319 11.845z" fill="#CC5454"/><path d="M177.764 386.121h-20.143l-4.795-54.336h7.993c.106 1.917.511 10.1 1.279 27.488.767 17.387 10.763 25.143 15.666 26.848z" fill="#CC5454"/><path d="M481.431 303.325c-20.677 8.403-24.018 32.323-21.909 46.413l8.834 2.367c22.08-20.513 17.917-41.067 13.075-48.78zM432.727 300.831c19.304 11.2 19.28 35.352 15.228 49.012l-9.077 1.113c-19.007-23.387-12.021-43.162-6.151-50.125z" fill="#E36161"/><path d="M458.159 285.119c-23.02 17.132-19.184 47.625-11.83 64.245l13.109-.319c20.717-32.474 7.353-56.042-1.279-63.926z" fill="#CC5454"/><path d="M426.826 349.045h50.516l-6.075 37.076h-39.006l-5.435-37.076z" fill="#3F3F3F"/></svg>