<svg width="50" height="50" viewBox="0 0 50 50" fill="none" xmlns="http://www.w3.org/2000/svg">
<path fill-rule="evenodd" clip-rule="evenodd" d="M9.10825 9.66196C5.273 13.6348 2.91375 19.0419 2.91375 25C2.91375 35.0785 9.66446 43.5804 18.8909 46.2305L9.10825 9.66196ZM11.4675 7.54381L11.5518 7.52125L17.4775 29.6723L31.9465 25.7891L25.8312 2.9291C25.5554 2.9189 26.1094 2.9291 25.8312 2.9291C20.7322 2.9291 15.2057 4.64163 11.4675 7.54381ZM28.9368 3.2636L34.7607 25.0338L46.8544 21.788C45.4872 12.4039 38.2192 4.93371 28.9368 3.2636ZM47.0848 24.7431L35.5137 27.8486L39.263 41.8639C44.0483 37.8125 47.0862 31.761 47.0862 25C47.0862 24.9142 47.0858 24.8286 47.0848 24.7431ZM36.7408 43.7106L32.6995 28.6039L18.2305 32.4871L22.085 46.8956C23.0388 47.0214 24.0118 47.0862 25 47.0862C29.3143 47.0862 33.3397 45.8492 36.7408 43.7106ZM0 25C0 11.1929 11.1929 0 25 0C38.8071 0 50 11.1929 50 25C50 38.8071 38.8071 50 25 50C11.1929 50 0 38.8071 0 25Z" fill="#F15A5A"/>
</svg>
