<svg width="16" height="16" viewBox="0 0 16 16" fill="white" xmlns="http://www.w3.org/2000/svg">
<path d="M11.0078 1.54974H13.3571L7.10051 7.8075C6.79893 8.10914 6.79772 8.59833 7.09776 8.90147C7.39924 9.20606 7.89038 9.20732 8.19341 8.90424L14.4531 2.64337V4.97644C14.4531 5.40192 14.7969 5.75131 15.2266 5.75131C15.6562 5.75131 16 5.40192 16 4.97644V1.11974C16 0.503788 15.5026 0 14.8835 0H11.0078C10.5782 0 10.2344 0.349386 10.2344 0.774869C10.2344 1.20035 10.5782 1.54974 11.0078 1.54974Z" />
<path d="M3.11719 1.45288C1.39315 1.45288 0 2.85709 0 4.58377V12.8691C0 14.5958 1.39315 16 3.11719 16H11.3594C13.0834 16 14.4766 14.5958 14.4766 12.8691V7.92147C14.4766 7.49598 14.1327 7.1466 13.7031 7.1466C13.2735 7.1466 12.9297 7.49598 12.9297 7.92147V12.8691C12.9297 13.7448 12.2242 14.4503 11.3594 14.4503H3.11719C2.25239 14.4503 1.54688 13.7448 1.54688 12.8691V4.58377C1.54688 3.70806 2.25239 3.00262 3.11719 3.00262H7.92188C8.35149 3.00262 8.69531 2.65323 8.69531 2.22775C8.69531 1.80227 8.35149 1.45288 7.92188 1.45288H3.11719Z" />
</svg>
