<svg width="36" height="32" viewBox="0 0 36 32" fill="#7B7B7B" xmlns="http://www.w3.org/2000/svg">
<path fill-rule="evenodd" clip-rule="evenodd" d="M26.5898 6.33112H31.9998C33.8413 6.33112 35.3396 7.82947 35.3398 9.67108V23H33.959V19.6141C33 20.6591 31.6235 21.3152 30.0967 21.3152H29.3547V23.5524C29.3547 23.9336 29.0457 24.2426 28.6646 24.2426H24.4624C24.0813 24.2426 23.7722 23.9336 23.7722 23.5524V21.3152H11.5671V23.5524C11.5671 23.9336 11.2583 24.2426 10.877 24.2426H6.67505C6.2937 24.2426 5.98486 23.9336 5.98486 23.5524V21.3152H5.24292C3.71606 21.3152 2.3396 20.6591 1.38037 19.6141V28.3375C1.38037 29.4194 2.2583 30.2996 3.3374 30.2996H32.0022C33.0813 30.2996 33.9592 29.4194 33.9592 28.3375V27H35.3398V28.3375C35.3398 30.1805 33.8425 31.68 32.0022 31.68H3.3374C1.49707 31.68 0 30.1805 0 28.3375V14H1.38037V16.0724C1.38037 18.2021 3.11304 19.9348 5.24292 19.9347H5.98486V17.0073C5.98486 16.626 6.2937 16.3171 6.67505 16.3171H10.8772C11.2583 16.3171 11.5674 16.626 11.5674 17.0073V19.9347H23.7725V17.0073C23.7725 16.626 24.0813 16.3171 24.4626 16.3171H28.6646C29.0459 16.3171 29.355 16.626 29.355 17.0073V19.9347H30.0969C32.2266 19.9347 33.9592 18.202 33.9592 16.0723V9.67108C33.9592 8.59058 33.0801 7.71155 31.9998 7.71155H3.33984C2.25952 7.71155 1.38037 8.59058 1.38037 9.67108V10H0V9.67108C0 7.82947 1.49829 6.33112 3.33984 6.33112H8.74976V2.4444C8.74976 1.0965 9.84473 0 11.1907 0H24.1489C25.4949 0 26.5898 1.09656 26.5898 2.4444V6.33112ZM11.1907 1.38043C10.606 1.38043 10.1304 1.85773 10.1304 2.4444V6.33112H11.9214V3.8681C11.9214 3.48688 12.2305 3.17786 12.6118 3.17786H22.728C23.1091 3.17786 23.4182 3.48688 23.4182 3.8681V6.33112H25.2095V2.4444C25.2095 1.85773 24.7336 1.38043 24.1489 1.38043H11.1907ZM13.302 4.55835V6.33112H22.0378V4.55835H13.302ZM27.9744 22.8621V17.6976H25.1528V22.8621H27.9744ZM10.1868 22.8621V17.6976H7.36523V22.8621H10.1868Z" />
<path d="M9.5 10C9.22385 10 9 10.2238 9 10.5C9 10.7762 9.22385 11 9.5 11H26.5C26.7762 11 27 10.7762 27 10.5C27 10.2238 26.7762 10 26.5 10H9.5Z" />
<path d="M9 13.5C9 13.2238 9.22385 13 9.5 13H21.5C21.7762 13 22 13.2238 22 13.5C22 13.7762 21.7762 14 21.5 14H9.5C9.22385 14 9 13.7762 9 13.5Z" />
<path d="M24.5 14C24.7762 14 25 13.7762 25 13.5C25 13.2238 24.7762 13 24.5 13C24.2238 13 24 13.2238 24 13.5C24 13.7762 24.2238 14 24.5 14Z" />
</svg>
