<svg width="32" height="28" viewBox="0 0 32 28" fill="#F15A5A" xmlns="http://www.w3.org/2000/svg">
<path fill-rule="evenodd" clip-rule="evenodd" d="M11.2 3.10396V5.00495H4.48C2.00576 5.00495 0 6.99086 0 9.44059V23.3812C0 25.8309 2.00576 27.8168 4.48 27.8168H27.52C29.9942 27.8168 32 25.8309 32 23.3812V9.44059C32 6.99086 29.9942 5.00495 27.52 5.00495H20.8V3.10396C20.8 1.87909 19.7971 0.886139 18.56 0.886139H13.44C12.2029 0.886139 11.2 1.87909 11.2 3.10396ZM18.56 2.15347H13.44C12.9098 2.15347 12.48 2.57902 12.48 3.10396V5.00495H19.52V3.10396C19.52 2.57902 19.0902 2.15347 18.56 2.15347ZM1.3432 8.8109C1.63814 7.36275 2.93045 6.27228 4.48 6.27228H27.52C29.0652 6.27228 30.3546 7.35664 30.6543 8.79873L16.4653 16.6564C16.2731 16.7628 16.0391 16.7639 15.8459 16.6594L1.3432 8.8109ZM1.28 10.221V23.3812C1.28 25.131 2.71269 26.5495 4.48 26.5495H27.52C29.2873 26.5495 30.72 25.131 30.72 23.3812V10.2144L17.0901 17.7624C16.5136 18.0817 15.8117 18.0851 15.232 17.7714L1.28 10.221Z" />
</svg>
